<svg xmlns="http://www.w3.org/2000/svg" version="1.1" xmlns:xlink="http://www.w3.org/1999/xlink" xmlns:svgjs="http://svgjs.dev/svgjs" width="1500" height="1500" viewBox="0 0 1500 1500"><rect width="1500" height="1500" fill="#444444"></rect><g transform="matrix(0.6666666666666666,0,0,0.6666666666666666,250,250)"><svg viewBox="0 0 280 280" data-background-color="#444444" preserveAspectRatio="xMidYMid meet" height="1500" width="1500" xmlns="http://www.w3.org/2000/svg" xmlns:xlink="http://www.w3.org/1999/xlink"><g id="tight-bounds" transform="matrix(1,0,0,1,0,0)"><svg viewBox="0 0 280 280" height="280" width="280"><g><svg viewBox="0 0 280 280" height="280" width="280"><g><svg viewBox="0 0 280 280" height="280" width="280"><g id="textblocktransform"><svg viewBox="0 0 280 280" height="280" width="280" id="textblock"><g><svg viewBox="0 0 280 280" height="280" width="280"><g transform="matrix(1,0,0,1,85.97652345656672,74.00336708925556)"><svg viewBox="0 0 108.04695308686654 131.99326582148888" height="131.99326582148888" width="108.04695308686654"><g id="icon-0"><svg xmlns="http://www.w3.org/2000/svg" xmlns:xlink="http://www.w3.org/1999/xlink" version="1.1" x="0" y="0" viewBox="13.166 5.0001656522164515 73.672 89.99983434778355" enable-background="new 0 0 100 100" xml:space="preserve" height="131.99326582148888" width="108.04695308686654" class="icon-jxe-0" data-fill-palette-color="accent" id="jxe-0"><g fill="#00d1cd" data-fill-palette-color="accent"><g fill="#00d1cd" data-fill-palette-color="accent"><path d="M24.755 35.325H71.793C73.41 35.325 74.733 33.995 74.733 32.378A2.955 2.955 0 0 0 71.793 29.431H24.755A2.955 2.955 0 0 0 21.815 32.378 2.955 2.955 0 0 0 24.755 35.325" fill="#00d1cd" data-fill-palette-color="accent"></path><path d="M75.463 41.219H24.755C23.138 41.219 21.815 42.549 21.815 44.166S23.138 47.113 24.755 47.113H75.463C77.08 47.113 78.403 45.783 78.403 44.166S77.08 41.219 75.463 41.219" fill="#00d1cd" data-fill-palette-color="accent"></path><path d="M72.586 53.006H24.755A2.955 2.955 0 0 0 21.815 55.953 2.955 2.955 0 0 0 24.755 58.9H72.586C74.203 58.9 75.526 57.57 75.526 55.953A2.955 2.955 0 0 0 72.586 53.006" fill="#00d1cd" data-fill-palette-color="accent"></path><path d="M44.259 64.794H24.777A2.955 2.955 0 0 0 21.837 67.741 2.955 2.955 0 0 0 24.777 70.688H44.259C45.876 70.688 47.199 69.358 47.199 67.741A2.955 2.955 0 0 0 44.259 64.794" fill="#00d1cd" data-fill-palette-color="accent"></path><path d="M77.432 9.328C77.932 7.113 77.619 5.454 76.604 5.072 75.323 4.589 73.236 6.593 71.868 9.54H67.747C68.237 7.33 67.98 5.575 66.97 5.194 65.689 4.711 63.659 6.593 62.291 9.54H58.17C58.66 7.33 58.403 5.575 57.393 5.194 56.112 4.711 54.082 6.593 52.714 9.54H48.593C49.083 7.33 48.826 5.575 47.816 5.194 46.535 4.711 44.505 6.593 43.137 9.54H39.016C39.506 7.33 39.249 5.575 38.239 5.194 36.958 4.711 34.928 6.593 33.56 9.54H29.439C29.929 7.33 29.672 5.575 28.662 5.194 27.381 4.711 25.351 6.593 23.983 9.54H23.589C17.916 9.54 13.166 13.569 13.166 19.242V84.074C13.166 89.747 17.916 95 23.589 95H76.633C82.306 95 86.838 89.747 86.838 84.074V19.242C86.836 13.802 82.759 9.66 77.432 9.328M83.889 84.074C83.889 88.136 80.693 92.053 76.63 92.053H23.587C19.525 92.053 16.111 88.136 16.111 84.074V19.242C16.111 15.393 19.267 12.559 23.067 12.272 22.585 14.458 22.788 16.332 23.794 16.711 25.075 17.194 27.049 15.434 28.417 12.487H32.538C32.048 14.697 32.306 16.452 33.315 16.833 34.596 17.316 36.626 15.434 37.994 12.487H42.115C41.625 14.697 41.883 16.452 42.892 16.833 44.173 17.316 46.203 15.434 47.571 12.487H51.692C51.202 14.697 51.46 16.452 52.469 16.833 53.75 17.316 55.78 15.434 57.148 12.487H61.269C60.779 14.697 61.037 16.452 62.046 16.833 63.327 17.316 65.357 15.434 66.725 12.487H70.846C70.356 14.697 70.614 16.452 71.623 16.833 72.904 17.316 74.934 15.434 76.302 12.487H76.63C80.692 12.487 83.889 15.18 83.889 19.242z" fill="#00d1cd" data-fill-palette-color="accent"></path></g></g></svg></g></svg></g><g id="text-0"><path d="M29.97 105.661l-0.197 0.742-29.137-7.742 0.197-0.742z" fill="#ffffff" data-fill-palette-color="primary"></path><path d="M42.706 78.474v0c-0.693 1.186-1.393 2.025-2.101 2.516-0.714 0.488-1.421 0.73-2.12 0.726-0.7-0.003-1.396-0.153-2.089-0.448-0.699-0.299-1.362-0.632-1.99-0.999v0l-10.248-5.986c-0.634-0.37-1.244-0.781-1.829-1.232-0.586-0.452-1.058-0.992-1.416-1.622-0.348-0.632-0.482-1.385-0.4-2.258 0.09-0.875 0.497-1.932 1.22-3.17v0c0.886-1.517 1.806-2.458 2.759-2.821 0.947-0.367 1.898-0.412 2.852-0.136 0.948 0.273 1.849 0.659 2.703 1.158v0l10.247 5.986c0.849 0.496 1.628 1.091 2.337 1.786 0.703 0.692 1.119 1.554 1.249 2.589 0.135 1.038-0.257 2.342-1.174 3.911zM42.043 78.087v0c0.835-1.43 1.182-2.604 1.04-3.522-0.148-0.921-0.556-1.678-1.224-2.27-0.673-0.596-1.368-1.103-2.083-1.521v0l-9.994-5.838c-0.744-0.435-1.533-0.794-2.365-1.077-0.832-0.284-1.678-0.278-2.536 0.016-0.852 0.298-1.681 1.135-2.485 2.513v0c-0.645 1.105-0.997 2.053-1.055 2.846-0.061 0.799 0.073 1.47 0.403 2.014 0.33 0.543 0.761 1.006 1.295 1.387 0.53 0.388 1.071 0.743 1.624 1.066v0l9.994 5.838c0.552 0.323 1.127 0.62 1.725 0.89 0.595 0.277 1.206 0.432 1.835 0.464 0.629 0.032 1.266-0.158 1.911-0.568 0.649-0.416 1.287-1.162 1.915-2.238z" fill="#ffffff" data-fill-palette-color="primary"></path><path d="M64.175 52.497l-0.637 0.576-20.159-13.694 0.568-0.516 19.038 12.967-10.991-20.256 0.569-0.515z" fill="#ffffff" data-fill-palette-color="primary"></path><path d="M91.996 34.588v0c-1.23 0.611-2.276 0.928-3.137 0.95-0.864 0.016-1.588-0.169-2.171-0.556-0.583-0.387-1.083-0.894-1.5-1.522-0.42-0.633-0.792-1.276-1.116-1.926v0l-5.281-10.628c-0.44-0.886-0.774-1.807-1.001-2.762-0.23-0.961-0.12-1.906 0.328-2.836 0.439-0.932 1.445-1.79 3.019-2.571v0c1.598-0.794 2.89-1.098 3.878-0.912 0.981 0.189 1.778 0.665 2.39 1.428 0.612 0.763 1.154 1.618 1.624 2.565v0l2.32 4.667-9.56 4.751 2.894 5.825c0.414 0.832 0.893 1.601 1.44 2.307 0.546 0.706 1.257 1.146 2.133 1.319 0.867 0.171 2-0.091 3.399-0.786v0c1.399-0.695 2.286-1.437 2.661-2.225 0.372-0.794 0.445-1.616 0.218-2.466-0.227-0.85-0.553-1.703-0.978-2.559v0l-0.85-1.709 0.688-0.342 0.917 1.845c0.437 0.88 0.783 1.795 1.036 2.745 0.257 0.94 0.17 1.87-0.259 2.79-0.433 0.929-1.463 1.799-3.092 2.608zM79.658 20.949l1.789 3.6 8.873-4.41-1.789-3.599c-0.497-1.001-1.016-1.863-1.557-2.588-0.537-0.733-1.23-1.182-2.079-1.346-0.849-0.165-1.988 0.108-3.416 0.818v0c-1.254 0.623-2.094 1.315-2.521 2.076-0.423 0.767-0.546 1.595-0.368 2.484 0.172 0.892 0.528 1.88 1.068 2.965z" fill="#ffffff" data-fill-palette-color="primary"></path><path d="M146.798 23.68l-0.766-0.053 1.646-23.627 0.665 0.046-0.072 2.486c0.4-0.708 1.027-1.326 1.881-1.853 0.854-0.534 2.026-0.75 3.518-0.646v0c1.337 0.093 2.382 0.348 3.135 0.765 0.76 0.424 1.293 0.957 1.6 1.6 0.306 0.649 0.48 1.343 0.523 2.081 0.043 0.739 0.039 1.474-0.012 2.206v0l-1.237 17.753-0.766-0.053 1.208-17.33c0.066-0.954 0.054-1.889-0.037-2.807-0.098-0.918-0.469-1.696-1.113-2.335-0.644-0.632-1.763-1.004-3.355-1.115v0c-1.746-0.122-3.083 0.264-4.009 1.159-0.926 0.894-1.437 2.026-1.532 3.396v0z" fill="#ffffff" data-fill-palette-color="primary"></path><path d="M185.639 33.02v0c-1.276-0.508-2.21-1.076-2.801-1.702-0.589-0.633-0.933-1.296-1.034-1.989-0.101-0.693-0.057-1.403 0.131-2.132 0.191-0.735 0.422-1.441 0.691-2.117v0l4.391-11.025c0.272-0.682 0.587-1.346 0.946-1.993 0.359-0.647 0.823-1.194 1.393-1.641 0.573-0.438 1.297-0.683 2.173-0.733 0.879-0.041 1.985 0.203 3.317 0.734v0c1.633 0.65 2.7 1.419 3.201 2.308 0.504 0.882 0.69 1.815 0.559 2.799-0.129 0.978-0.376 1.927-0.742 2.846v0l-4.391 11.025c-0.364 0.913-0.836 1.772-1.418 2.577-0.579 0.799-1.37 1.339-2.374 1.62-1.006 0.288-2.354 0.095-4.042-0.577zM185.923 32.307v0c1.539 0.613 2.751 0.78 3.637 0.503 0.889-0.284 1.576-0.8 2.063-1.549 0.489-0.755 0.887-1.517 1.193-2.286v0l4.282-10.753c0.319-0.801 0.556-1.634 0.713-2.499 0.156-0.865 0.025-1.7-0.394-2.505-0.421-0.798-1.373-1.493-2.855-2.083v0c-1.189-0.473-2.179-0.679-2.972-0.618-0.799 0.059-1.442 0.292-1.931 0.698-0.488 0.407-0.881 0.903-1.179 1.488-0.304 0.582-0.575 1.17-0.812 1.764v0l-4.282 10.753c-0.237 0.594-0.445 1.207-0.624 1.839-0.185 0.629-0.247 1.257-0.184 1.883 0.062 0.626 0.344 1.228 0.846 1.805 0.508 0.579 1.341 1.1 2.499 1.56z" fill="#ffffff" data-fill-palette-color="primary"></path><path d="M214.328 50.064v0c-0.976-0.774-1.444-1.62-1.402-2.541 0.041-0.93 0.517-1.97 1.429-3.12v0l11.465-14.471-1.425-1.129 0.42-0.531 1.481 1.058 2.996-3.554 0.491 0.389-2.885 3.642 4.354 3.449-0.477 0.602-4.354-3.45-11.615 14.662c-0.556 0.702-0.919 1.441-1.087 2.218-0.173 0.782 0.165 1.51 1.015 2.183v0c0.354 0.28 0.719 0.54 1.097 0.778 0.378 0.239 0.814 0.512 1.31 0.819v0l-0.477 0.602c-0.2-0.116-0.521-0.318-0.962-0.608-0.441-0.289-0.899-0.622-1.374-0.998z" fill="#ffffff" data-fill-palette-color="primary"></path><path d="M234.555 72.533v0c-0.819-1.103-1.316-2.076-1.489-2.919-0.168-0.848-0.114-1.593 0.164-2.236 0.278-0.642 0.688-1.224 1.232-1.745 0.549-0.525 1.116-1.005 1.699-1.439v0l9.526-7.077c0.795-0.59 1.642-1.081 2.542-1.473 0.905-0.396 1.855-0.455 2.849-0.179 0.995 0.267 2.017 1.106 3.065 2.517v0c1.064 1.432 1.592 2.651 1.583 3.656-0.013 0.999-0.34 1.868-0.983 2.605-0.643 0.738-1.389 1.422-2.238 2.052v0l-4.183 3.108-6.366-8.57-5.222 3.879c-0.746 0.554-1.418 1.162-2.016 1.825-0.598 0.663-0.905 1.44-0.921 2.333-0.015 0.883 0.444 1.952 1.375 3.206v0c0.932 1.254 1.818 1.996 2.66 2.226 0.847 0.226 1.669 0.152 2.465-0.221 0.796-0.373 1.578-0.845 2.346-1.416v0l1.532-1.138 0.458 0.616-1.654 1.229c-0.789 0.586-1.628 1.088-2.518 1.505-0.88 0.419-1.811 0.498-2.792 0.238-0.991-0.262-2.029-1.122-3.114-2.582zM245.799 57.978l-3.227 2.398 5.908 7.953 3.227-2.397c0.897-0.667 1.654-1.33 2.271-1.99 0.627-0.658 0.946-1.42 0.958-2.284 0.012-0.864-0.458-1.937-1.409-3.218v0c-0.835-1.124-1.665-1.829-2.489-2.114-0.83-0.281-1.666-0.255-2.509 0.077-0.847 0.327-1.757 0.852-2.73 1.575z" fill="#ffffff" data-fill-palette-color="primary"></path><path d="M249.78 102.661v0c-0.547-1.563-0.62-2.975-0.219-4.236 0.403-1.254 1.434-2.171 3.093-2.751v0l3.022-1.057 0.253 0.724-3.022 1.058c-1.322 0.462-2.173 1.242-2.553 2.337-0.38 1.096-0.333 2.321 0.141 3.674v0c0.496 1.417 1.196 2.449 2.099 3.097 0.904 0.647 2.049 0.728 3.434 0.243v0l1.716-0.6c1.144-0.4 1.956-0.955 2.435-1.665 0.479-0.71 0.793-1.504 0.943-2.384 0.149-0.88 0.253-1.804 0.313-2.774v0c0.099-1.083 0.222-2.089 0.368-3.018 0.146-0.928 0.446-1.732 0.9-2.412 0.458-0.688 1.183-1.206 2.175-1.552v0l1.535-0.537c1.265-0.442 2.489-0.328 3.672 0.342 1.175 0.666 2.063 1.861 2.665 3.583v0c0.547 1.563 0.644 2.974 0.293 4.231-0.354 1.251-1.345 2.161-2.972 2.73v0l-2.936 1.027-0.254-0.725 2.66-0.93c1.449-0.507 2.359-1.271 2.729-2.292 0.368-1.028 0.29-2.291-0.235-3.791v0c-0.527-1.506-1.314-2.543-2.361-3.112-1.039-0.564-2.178-0.629-3.418-0.195v0l-0.81 0.283c-0.991 0.347-1.699 0.883-2.123 1.609-0.426 0.72-0.7 1.507-0.821 2.363-0.122 0.856-0.225 1.651-0.31 2.388v0c-0.072 1.038-0.199 2.053-0.38 3.043-0.173 0.995-0.535 1.885-1.088 2.67-0.553 0.785-1.461 1.399-2.726 1.842v0l-1.716 0.6c-1.176 0.411-2.184 0.475-3.025 0.192-0.841-0.284-1.546-0.779-2.114-1.486-0.571-0.713-1.025-1.553-1.363-2.519z" fill="#ffffff" data-fill-palette-color="primary"></path><path d="M1.812 139.595c0-6.36 5.156-11.516 11.517-11.516 6.36 0 11.516 5.156 11.516 11.516 0 6.36-5.156 11.516-11.516 11.517-6.36 0-11.516-5.156-11.517-11.517z" fill="#ffffff" data-fill-palette-color="primary"></path><path d="M256.331 139.595c0-6.36 5.156-11.516 11.516-11.516 6.36 0 11.516 5.156 11.517 11.516 0 6.36-5.156 11.516-11.517 11.517-6.36 0-11.516-5.156-11.516-11.517z" fill="#ffffff" data-fill-palette-color="primary"></path></g><g id="text-1"><path d="M6.391 180.069l-0.21-0.79 31.058-8.26 0.21 0.79z" fill="#00d1cd" data-fill-palette-color="secondary"></path><path d="M20.995 213.393v0c-0.735-1.263-1.144-2.353-1.227-3.271-0.083-0.918 0.062-1.7 0.434-2.345 0.369-0.651 0.871-1.22 1.507-1.708 0.642-0.49 1.3-0.932 1.975-1.325v0l10.936-6.368c0.675-0.393 1.375-0.742 2.101-1.048 0.726-0.306 1.475-0.458 2.248-0.456 0.767 0.005 1.534 0.279 2.301 0.822 0.77 0.533 1.54 1.46 2.309 2.781v0c0.942 1.618 1.333 2.964 1.172 4.039-0.157 1.081-0.614 1.99-1.369 2.726-0.759 0.73-1.592 1.36-2.5 1.888v0l-10.936 6.369c-0.908 0.529-1.866 0.943-2.876 1.242-1.007 0.291-2.028 0.223-3.064-0.203-1.032-0.42-2.035-1.468-3.011-3.143zM21.693 212.986v0c0.891 1.53 1.802 2.465 2.732 2.804 0.927 0.348 1.843 0.368 2.746 0.06 0.904-0.308 1.737-0.684 2.499-1.128v0l10.674-6.216c0.791-0.461 1.535-1.003 2.232-1.626 0.702-0.627 1.139-1.415 1.311-2.365 0.181-0.947-0.157-2.156-1.015-3.629v0c-0.684-1.175-1.381-1.997-2.089-2.464-0.706-0.477-1.4-0.704-2.08-0.682-0.675 0.019-1.331 0.175-1.971 0.469-0.633 0.291-1.244 0.607-1.831 0.95v0l-10.674 6.216c-0.588 0.342-1.164 0.717-1.73 1.124-0.571 0.411-1.037 0.896-1.396 1.456-0.356 0.566-0.512 1.261-0.469 2.084 0.04 0.818 0.394 1.8 1.061 2.947z" fill="#00d1cd" data-fill-palette-color="secondary"></path><path d="M47.783 244.833l-0.68-0.617 12.424-22.817 0.606 0.549-11.764 21.562 20.339-13.788 0.606 0.55z" fill="#00d1cd" data-fill-palette-color="secondary"></path><path d="M80.785 267.106v0c-1.307-0.652-2.248-1.339-2.82-2.061-0.573-0.722-0.881-1.455-0.924-2.199-0.049-0.747 0.059-1.498 0.324-2.254 0.267-0.762 0.575-1.493 0.923-2.192v0l5.65-11.324c0.469-0.94 1.037-1.815 1.705-2.626 0.674-0.808 1.551-1.322 2.631-1.542 1.075-0.224 2.45 0.082 4.125 0.917v0c1.705 0.851 2.793 1.754 3.264 2.712 0.471 0.957 0.577 1.943 0.318 2.958-0.255 1.009-0.634 2.017-1.135 3.023v0l-2.484 4.98-10.177-5.077-3.097 6.209c-0.439 0.88-0.783 1.78-1.032 2.702-0.255 0.919-0.178 1.804 0.233 2.656 0.416 0.855 1.369 1.653 2.857 2.395v0c1.494 0.745 2.696 1.021 3.605 0.828 0.915-0.191 1.663-0.656 2.244-1.398 0.571-0.738 1.084-1.562 1.537-2.472v0l0.911-1.825 0.732 0.365-0.978 1.961c-0.469 0.94-1.022 1.823-1.66 2.648-0.635 0.82-1.486 1.343-2.555 1.57-1.063 0.23-2.462-0.088-4.197-0.954zM84.462 247.857l-1.911 3.832 9.444 4.711 1.912-3.832c0.532-1.066 0.936-2.065 1.212-2.995 0.273-0.925 0.206-1.801-0.201-2.629-0.398-0.831-1.36-1.626-2.884-2.387v0c-1.338-0.667-2.469-0.934-3.393-0.8-0.915 0.13-1.696 0.557-2.343 1.28-0.647 0.723-1.259 1.663-1.836 2.82z" fill="#00d1cd" data-fill-palette-color="secondary"></path><path d="M147.671 279.947l-0.816 0.053-1.629-25.197 0.716-0.046 0.272 2.644c0.325-0.81 0.901-1.556 1.727-2.237 0.819-0.687 2.028-1.082 3.628-1.186v0c1.424-0.092 2.566 0.033 3.425 0.376 0.852 0.336 1.487 0.822 1.906 1.456 0.419 0.641 0.704 1.348 0.855 2.12 0.151 0.773 0.252 1.549 0.303 2.329v0l1.224 18.938-0.817 0.052-1.194-18.474c-0.066-1.021-0.214-2.01-0.445-2.967-0.231-0.957-0.732-1.724-1.505-2.301-0.773-0.584-2.006-0.822-3.699-0.712v0c-1.868 0.121-3.226 0.721-4.074 1.801-0.855 1.074-1.235 2.344-1.14 3.809v0z" fill="#00d1cd" data-fill-palette-color="secondary"></path><path d="M194.602 269.669v0c-1.36 0.535-2.499 0.774-3.419 0.716-0.92-0.058-1.671-0.319-2.252-0.784-0.588-0.463-1.074-1.046-1.459-1.749-0.388-0.709-0.724-1.426-1.011-2.153v0l-4.636-11.775c-0.286-0.727-0.525-1.472-0.717-2.236-0.192-0.764-0.229-1.527-0.11-2.29 0.122-0.757 0.509-1.474 1.161-2.151 0.644-0.68 1.677-1.301 3.1-1.86v0c1.742-0.686 3.132-0.868 4.17-0.546 1.045 0.32 1.874 0.909 2.487 1.767 0.607 0.861 1.103 1.78 1.487 2.758v0l4.636 11.775c0.385 0.977 0.649 1.988 0.792 3.031 0.134 1.04-0.087 2.039-0.665 2.997-0.572 0.956-1.76 1.789-3.564 2.5zM194.306 268.917v0c1.648-0.649 2.71-1.407 3.186-2.275 0.485-0.864 0.643-1.766 0.476-2.705-0.167-0.94-0.413-1.82-0.736-2.641v0l-4.525-11.493c-0.335-0.852-0.759-1.67-1.27-2.453-0.513-0.789-1.226-1.341-2.138-1.655-0.908-0.323-2.155-0.172-3.741 0.453v0c-1.266 0.498-2.183 1.062-2.753 1.692-0.579 0.626-0.908 1.277-0.989 1.952-0.084 0.67-0.029 1.343 0.165 2.019 0.191 0.67 0.412 1.321 0.661 1.954v0l4.525 11.494c0.249 0.633 0.532 1.259 0.849 1.88 0.319 0.627 0.728 1.161 1.227 1.601 0.505 0.438 1.168 0.698 1.989 0.779 0.815 0.084 1.839-0.116 3.074-0.602z" fill="#00d1cd" data-fill-palette-color="secondary"></path><path d="M229.226 248.542v0c-1.043 0.819-2.04 1.093-2.99 0.821-0.946-0.267-1.904-1.017-2.873-2.251v0l-12.161-15.478-1.517 1.191-0.443-0.563 1.454-1.272-2.93-3.991 0.516-0.405 3.057 3.891 4.654-3.657 0.506 0.644-4.654 3.656 12.324 15.685c0.587 0.747 1.265 1.305 2.035 1.676 0.761 0.369 1.597 0.196 2.508-0.519v0c0.376-0.295 0.737-0.609 1.084-0.942 0.337-0.334 0.726-0.716 1.167-1.148v0l0.505 0.644c-0.165 0.172-0.455 0.451-0.87 0.838-0.406 0.388-0.863 0.781-1.372 1.18z" fill="#00d1cd" data-fill-palette-color="secondary"></path><path d="M254.36 222.177v0c-0.878 1.168-1.724 1.968-2.538 2.4-0.814 0.432-1.591 0.602-2.33 0.51-0.743-0.087-1.463-0.329-2.158-0.726-0.701-0.401-1.364-0.836-1.988-1.306v0l-10.113-7.607c-0.839-0.631-1.597-1.349-2.274-2.152-0.672-0.809-1.019-1.765-1.04-2.868-0.025-1.098 0.524-2.394 1.649-3.89v0c1.145-1.523 2.231-2.429 3.258-2.719 1.027-0.289 2.016-0.215 2.967 0.223 0.946 0.434 1.868 0.988 2.767 1.664v0l4.448 3.345-6.836 9.089 5.545 4.17c0.786 0.591 1.609 1.092 2.47 1.505 0.857 0.417 1.742 0.501 2.654 0.252 0.916-0.255 1.874-1.046 2.874-2.376v0c1.004-1.334 1.493-2.466 1.467-3.395-0.022-0.935-0.344-1.754-0.968-2.46-0.623-0.696-1.34-1.349-2.153-1.96v0l-1.63-1.227 0.491-0.653 1.752 1.317c0.839 0.631 1.607 1.335 2.304 2.112 0.691 0.773 1.051 1.705 1.08 2.797 0.034 1.087-0.533 2.405-1.698 3.955zM236.096 215.074l3.422 2.574 6.344-8.435-3.422-2.574c-0.952-0.716-1.861-1.295-2.727-1.735-0.86-0.436-1.734-0.529-2.621-0.278-0.889 0.241-1.846 1.042-2.87 2.404v0c-0.899 1.195-1.366 2.258-1.402 3.191-0.038 0.924 0.241 1.769 0.835 2.536 0.594 0.767 1.408 1.539 2.441 2.317z" fill="#00d1cd" data-fill-palette-color="secondary"></path><path d="M273.218 185.377v0c-0.593 1.668-1.477 2.887-2.651 3.655-1.176 0.775-2.646 0.849-4.409 0.222v0l-3.217-1.144 0.275-0.771 3.216 1.144c1.408 0.501 2.637 0.423 3.685-0.233 1.042-0.658 1.819-1.708 2.331-3.148v0c0.537-1.51 0.647-2.832 0.328-3.967-0.316-1.141-1.21-1.974-2.681-2.497v0l-1.827-0.65c-1.218-0.433-2.26-0.518-3.125-0.254-0.874 0.268-1.667 0.718-2.379 1.351-0.711 0.633-1.419 1.328-2.124 2.085v0c-0.805 0.836-1.577 1.59-2.317 2.263-0.746 0.671-1.538 1.139-2.376 1.406-0.829 0.262-1.774 0.205-2.833-0.171v0l-1.637-0.583c-1.345-0.478-2.282-1.391-2.81-2.736-0.531-1.34-0.472-2.923 0.178-4.75v0c0.593-1.668 1.455-2.906 2.585-3.711 1.136-0.804 2.57-0.897 4.302-0.281v0l3.121 1.11-0.274 0.771-2.836-1.009c-1.535-0.546-2.799-0.52-3.79 0.077-0.994 0.604-1.776 1.709-2.347 3.314v0c-0.569 1.599-0.607 2.982-0.115 4.15 0.486 1.166 1.385 1.983 2.698 2.45v0l0.866 0.308c1.059 0.377 2.007 0.406 2.841 0.089 0.835-0.318 1.589-0.789 2.262-1.414 0.673-0.625 1.287-1.218 1.843-1.778v0c0.762-0.815 1.547-1.576 2.356-2.282 0.813-0.697 1.709-1.189 2.69-1.476 0.985-0.278 2.15-0.178 3.495 0.3v0l1.827 0.65c1.25 0.445 2.13 1.065 2.64 1.861 0.51 0.796 0.764 1.68 0.761 2.651-0.002 0.971-0.186 1.97-0.552 2.998z" fill="#00d1cd" data-fill-palette-color="secondary"></path></g></svg></g></svg></g></svg></g></svg></g><defs></defs></svg><rect width="280" height="280" fill="none" stroke="none" visibility="hidden"></rect></g></svg></g></svg>